<svg width="54" height="43" viewBox="0 0 54 43" fill="none" xmlns="http://www.w3.org/2000/svg">
<path d="M34.965 25.13H34.3687L34.1625 24.9238C34.8975 24.0725 35.34 22.9663 35.34 21.755C35.34 19.0625 33.1575 16.88 30.465 16.88C27.7725 16.88 25.59 19.0625 25.59 21.755C25.59 24.4475 27.7725 26.63 30.465 26.63C31.6763 26.63 32.7825 26.1875 33.6338 25.4563L33.84 25.6625V26.255L37.59 29.9975L38.7075 28.88L34.965 25.13ZM30.465 25.13C28.6013 25.13 27.09 23.6188 27.09 21.755C27.09 19.8913 28.6013 18.38 30.465 18.38C32.3288 18.38 33.84 19.8913 33.84 21.755C33.84 23.6188 32.3288 25.13 30.465 25.13Z" fill="#333333"/>
<rect x="11.34" y="0.5" width="42" height="42" rx="3.5" stroke="#119CBA"/>
</svg>
