<svg width="54" height="43" viewBox="0 0 54 43" fill="none" xmlns="http://www.w3.org/2000/svg">
<path d="M34.9648 25.13H34.3685L34.1623 24.9238C34.8973 24.0725 35.3398 22.9663 35.3398 21.755C35.3398 19.0625 33.1573 16.88 30.4648 16.88C27.7723 16.88 25.5898 19.0625 25.5898 21.755C25.5898 24.4475 27.7723 26.63 30.4648 26.63C31.6761 26.63 32.7823 26.1875 33.6336 25.4563L33.8398 25.6625V26.255L37.5898 29.9975L38.7073 28.88L34.9648 25.13ZM30.4648 25.13C28.6011 25.13 27.0898 23.6188 27.0898 21.755C27.0898 19.8913 28.6011 18.38 30.4648 18.38C32.3286 18.38 33.8398 19.8913 33.8398 21.755C33.8398 23.6188 32.3286 25.13 30.4648 25.13Z" fill="#333333"/>
<rect x="11.3398" y="0.5" width="42" height="42" rx="3.5" stroke="#119CBA"/>
</svg>
