<svg width="27" height="21" viewBox="0 0 27 21" fill="none" xmlns="http://www.w3.org/2000/svg">
<g clip-path="url(#clip0_151_1041)">
<mask id="mask0_151_1041" style="mask-type:luminance" maskUnits="userSpaceOnUse" x="0" y="3" width="18" height="18">
<path d="M18 3H0V21H18V3Z" fill="white"/>
</mask>
<g mask="url(#mask0_151_1041)">
<path d="M10.6875 3H2.0625C0.9225 3 0 3.9225 0 5.0625V16.6875C0 17.8275 0.9225 18.75 2.0625 18.75H8.1675C7.5075 17.85 7.125 16.755 7.125 15.5625C7.125 12.5625 9.5625 10.125 12.5625 10.125C12.6225 10.125 12.69 10.125 12.75 10.1325V5.0625C12.75 3.9225 11.8275 3 10.6875 3ZM3 6H6C6.4125 6 6.75 6.3375 6.75 6.75C6.75 7.1625 6.4125 7.5 6 7.5H3C2.5875 7.5 2.25 7.1625 2.25 6.75C2.25 6.3375 2.5875 6 3 6ZM6.75 13.5H3C2.5875 13.5 2.25 13.1625 2.25 12.75C2.25 12.3375 2.5875 12 3 12H6.75C7.1625 12 7.5 12.3375 7.5 12.75C7.5 13.1625 7.1625 13.5 6.75 13.5ZM9.75 10.5H3C2.5875 10.5 2.25 10.1625 2.25 9.75C2.25 9.3375 2.5875 9 3 9H9.75C10.1625 9 10.5 9.3375 10.5 9.75C10.5 10.1625 10.1625 10.5 9.75 10.5Z" fill="#333333"/>
<path d="M12.5625 19.5C10.3913 19.5 8.625 17.7338 8.625 15.5625C8.625 13.3913 10.3913 11.625 12.5625 11.625C14.7338 11.625 16.5 13.3913 16.5 15.5625C16.5 17.7338 14.7338 19.5 12.5625 19.5ZM12.5625 13.125C11.2185 13.125 10.125 14.2185 10.125 15.5625C10.125 16.9065 11.2185 18 12.5625 18C13.9065 18 15 16.9065 15 15.5625C15 14.2185 13.9065 13.125 12.5625 13.125Z" fill="#333333"/>
<path d="M17.2502 21.0001C17.0582 21.0001 16.8662 20.9266 16.72 20.7804L14.2825 18.3429C13.9892 18.0496 13.9892 17.5756 14.2825 17.2824C14.5757 16.9891 15.0497 16.9891 15.343 17.2824L17.7805 19.7199C18.0737 20.0131 18.0737 20.4871 17.7805 20.7804C17.6342 20.9266 17.4422 21.0001 17.2502 21.0001Z" fill="#333333"/>
</g>
</g>
<defs>
<clipPath id="clip0_151_1041">
<rect width="18" height="18" fill="white" transform="translate(0 3)"/>
</clipPath>
</defs>
</svg>
